# MagicaVoxel @ Ephtracy

# group
o 

# material
mtllib bad thing.vox.mtl
usemtl palette

# normals
vn -1 0 0
vn 1 0 0
vn 0 0 1
vn 0 0 -1
vn 0 -1 0
vn 0 1 0

# texcoords
vt 0.970703 0.5
vt 0.974609 0.5
vt 0.978516 0.5
vt 0.994141 0.5

# verts
v -0.5 0 0.1
v -0.5 0 -0.2
v -0.5 0.1 0.1
v -0.5 0.1 -0.2
v -0.5 1.2 0.1
v -0.5 1.2 -0.2
v -0.5 1.3 0.1
v -0.5 1.3 -0.2
v -0.4 0 0.3
v -0.4 0 0.1
v -0.4 0 -0.2
v -0.4 0 -0.4
v -0.4 0.1 0.3
v -0.4 0.1 0.1
v -0.4 0.1 -0.2
v -0.4 0.1 -0.4
v -0.4 1.2 0.3
v -0.4 1.2 0.1
v -0.4 1.2 -0.2
v -0.4 1.2 -0.4
v -0.4 1.3 0.3
v -0.4 1.3 0.1
v -0.4 1.3 -0.2
v -0.4 1.3 -0.4
v -0.4 1.4 0.1
v -0.4 1.4 -0.2
v -0.3 0 -0.4
v -0.3 0 -0.5
v -0.3 0.1 0.3
v -0.3 0.1 0.1
v -0.3 0.1 -0.2
v -0.3 0.1 -0.4
v -0.3 0.1 -0.5
v -0.3 1.2 0.4
v -0.3 1.2 0.3
v -0.3 1.2 0.1
v -0.3 1.2 -0.2
v -0.3 1.2 -0.4
v -0.3 1.2 -0.5
v -0.3 1.3 0.4
v -0.3 1.3 0.3
v -0.3 1.3 -0.4
v -0.3 1.3 -0.5
v -0.3 1.4 0
v -0.3 1.4 -0.1
v -0.3 1.5 0
v -0.3 1.5 -0.1
v -0.2 0 0.5
v -0.2 0 0.4
v -0.2 0 0.3
v -0.2 0 -0.5
v -0.2 0 -0.6
v -0.2 0.1 0.5
v -0.2 0.1 0.4
v -0.2 0.1 -0.4
v -0.2 0.1 -0.5
v -0.2 0.1 -0.6
v -0.2 1.2 0.5
v -0.2 1.2 0.4
v -0.2 1.2 0.3
v -0.2 1.2 -0.4
v -0.2 1.2 -0.5
v -0.2 1.2 -0.6
v -0.2 1.3 0.5
v -0.2 1.3 0.4
v -0.2 1.3 0.3
v -0.2 1.3 0.1
v -0.2 1.3 -0.2
v -0.2 1.3 -0.4
v -0.2 1.3 -0.5
v -0.2 1.3 -0.6
v -0.2 1.4 0.4
v -0.2 1.4 0.1
v -0.2 1.4 -0.2
v -0.2 1.4 -0.5
v -0.1 1.4 0.3
v -0.1 1.4 0.2
v -0.1 1.4 -0.3
v -0.1 1.4 -0.4
v -0.1 1.5 0.3
v -0.1 1.5 0.2
v -0.1 1.5 -0.3
v -0.1 1.5 -0.4
v 0.1 1.3 0.1
v 0.1 1.3 -0.2
v 0.1 1.4 0.1
v 0.1 1.4 -0.2
v 0.2 1.4 0
v 0.2 1.4 -0.1
v 0.2 1.5 0
v 0.2 1.5 -0.1
v -0.2 1.4 0
v -0.2 1.4 -0.1
v -0.2 1.5 0
v -0.2 1.5 -0.1
v -0.1 1.3 0.1
v -0.1 1.3 -0.2
v -0.1 1.4 0.1
v -0.1 1.4 -0.2
v 0 1.4 0.3
v 0 1.4 0.2
v 0 1.4 -0.3
v 0 1.4 -0.4
v 0 1.5 0.3
v 0 1.5 0.2
v 0 1.5 -0.3
v 0 1.5 -0.4
v 0.1 1.3 0.4
v 0.1 1.3 0.1
v 0.1 1.3 -0.2
v 0.1 1.3 -0.5
v 0.1 1.4 0.4
v 0.1 1.4 0.1
v 0.1 1.4 -0.2
v 0.1 1.4 -0.5
v 0.2 0 0.5
v 0.2 0 0.4
v 0.2 0 -0.5
v 0.2 0 -0.6
v 0.2 0.1 0.5
v 0.2 0.1 0.4
v 0.2 0.1 0.3
v 0.2 0.1 -0.4
v 0.2 0.1 -0.5
v 0.2 0.1 -0.6
v 0.2 1.2 0.5
v 0.2 1.2 0.4
v 0.2 1.2 0.3
v 0.2 1.2 -0.4
v 0.2 1.2 -0.5
v 0.2 1.2 -0.6
v 0.2 1.3 0.5
v 0.2 1.3 0.4
v 0.2 1.3 -0.5
v 0.2 1.3 -0.6
v 0.3 0 0.4
v 0.3 0 0.3
v 0.3 0 -0.4
v 0.3 0 -0.5
v 0.3 0.1 0.4
v 0.3 0.1 0.3
v 0.3 0.1 0.1
v 0.3 0.1 -0.2
v 0.3 0.1 -0.4
v 0.3 0.1 -0.5
v 0.3 0.2 0.1
v 0.3 0.2 -0.2
v 0.3 0.3 0.1
v 0.3 0.3 -0.2
v 0.3 0.4 0.1
v 0.3 0.4 -0.2
v 0.3 0.5 0.1
v 0.3 0.5 -0.2
v 0.3 1.2 0.4
v 0.3 1.2 0.3
v 0.3 1.2 0.1
v 0.3 1.2 -0.2
v 0.3 1.2 -0.4
v 0.3 1.2 -0.5
v 0.3 1.3 0.4
v 0.3 1.3 0.3
v 0.3 1.3 -0.4
v 0.3 1.3 -0.5
v 0.3 1.4 0
v 0.3 1.4 -0.1
v 0.3 1.5 0
v 0.3 1.5 -0.1
v 0.4 0 0.3
v 0.4 0 0.1
v 0.4 0 -0.2
v 0.4 0 -0.4
v 0.4 0.1 0.3
v 0.4 0.1 0.1
v 0.4 0.1 -0.2
v 0.4 0.1 -0.4
v 0.4 0.2 0.1
v 0.4 0.2 0
v 0.4 0.2 -0.1
v 0.4 0.2 -0.2
v 0.4 0.3 0.1
v 0.4 0.3 0
v 0.4 0.3 -0.1
v 0.4 0.3 -0.2
v 0.4 0.4 0.1
v 0.4 0.4 0
v 0.4 0.4 -0.1
v 0.4 0.4 -0.2
v 0.4 0.5 0.1
v 0.4 0.5 0
v 0.4 0.5 -0.1
v 0.4 0.5 -0.2
v 0.4 0.6 0
v 0.4 0.6 -0.1
v 0.4 1 0
v 0.4 1 -0.1
v 0.4 1.2 0.3
v 0.4 1.2 0.1
v 0.4 1.2 -0.2
v 0.4 1.2 -0.4
v 0.4 1.3 0.3
v 0.4 1.3 0.1
v 0.4 1.3 -0.2
v 0.4 1.3 -0.4
v 0.4 1.4 0.1
v 0.4 1.4 -0.2
v 0.5 0 0.1
v 0.5 0 -0.2
v 0.5 0.1 0.1
v 0.5 0.1 -0.2
v 0.5 1.2 0.1
v 0.5 1.2 -0.2
v 0.5 1.3 0.1
v 0.5 1.3 -0.2
v -0.2 0 0.5
v -0.2 0.1 0.5
v -0.2 1.2 0.5
v -0.2 1.3 0.5
v 0.2 0 0.5
v 0.2 0.1 0.5
v 0.2 1.2 0.5
v 0.2 1.3 0.5
v -0.3 1.2 0.4
v -0.3 1.3 0.4
v -0.2 0.1 0.4
v -0.2 1.2 0.4
v -0.2 1.3 0.4
v -0.2 1.4 0.4
v 0.1 1.3 0.4
v 0.1 1.4 0.4
v 0.2 0 0.4
v 0.2 0.1 0.4
v 0.2 1.2 0.4
v 0.2 1.3 0.4
v 0.3 0 0.4
v 0.3 0.1 0.4
v 0.3 1.2 0.4
v 0.3 1.3 0.4
v -0.4 0 0.3
v -0.4 0.1 0.3
v -0.4 1.2 0.3
v -0.4 1.3 0.3
v -0.3 0 0.3
v -0.3 0.1 0.3
v -0.3 1.2 0.3
v -0.3 1.3 0.3
v -0.2 0 0.3
v -0.2 1.2 0.3
v -0.1 1.4 0.3
v -0.1 1.5 0.3
v 0 1.4 0.3
v 0 1.5 0.3
v 0.2 0.1 0.3
v 0.2 1.2 0.3
v 0.3 0 0.3
v 0.3 0.1 0.3
v 0.3 1.2 0.3
v 0.3 1.3 0.3
v 0.4 0 0.3
v 0.4 0.1 0.3
v 0.4 1.2 0.3
v 0.4 1.3 0.3
v -0.5 0 0.1
v -0.5 0.1 0.1
v -0.5 1.2 0.1
v -0.5 1.3 0.1
v -0.4 0 0.1
v -0.4 0.1 0.1
v -0.4 1.2 0.1
v -0.4 1.3 0.1
v -0.4 1.4 0.1
v -0.3 0.1 0.1
v -0.3 1.2 0.1
v -0.3 1.3 0.1
v -0.2 1.3 0.1
v -0.2 1.4 0.1
v 0.1 1.3 0.1
v 0.1 1.4 0.1
v 0.3 0.1 0.1
v 0.3 0.2 0.1
v 0.3 0.3 0.1
v 0.3 0.4 0.1
v 0.3 0.5 0.1
v 0.3 1.2 0.1
v 0.3 1.3 0.1
v 0.4 0 0.1
v 0.4 0.1 0.1
v 0.4 0.2 0.1
v 0.4 0.3 0.1
v 0.4 0.4 0.1
v 0.4 0.5 0.1
v 0.4 1.2 0.1
v 0.4 1.3 0.1
v 0.4 1.4 0.1
v 0.5 0 0.1
v 0.5 0.1 0.1
v 0.5 1.2 0.1
v 0.5 1.3 0.1
v -0.3 1.4 0
v -0.3 1.5 0
v -0.2 1.4 0
v -0.2 1.5 0
v 0.2 1.4 0
v 0.2 1.5 0
v 0.3 1.4 0
v 0.3 1.5 0
v -0.1 1.3 -0.2
v -0.1 1.4 -0.2
v 0.1 1.3 -0.2
v 0.1 1.4 -0.2
v -0.1 1.4 -0.3
v -0.1 1.5 -0.3
v 0 1.4 -0.3
v 0 1.5 -0.3
v -0.1 1.4 0.2
v -0.1 1.5 0.2
v 0 1.4 0.2
v 0 1.5 0.2
v -0.1 1.3 0.1
v -0.1 1.4 0.1
v 0.1 1.3 0.1
v 0.1 1.4 0.1
v -0.3 1.4 -0.1
v -0.3 1.5 -0.1
v -0.2 1.4 -0.1
v -0.2 1.5 -0.1
v 0.2 1.4 -0.1
v 0.2 1.5 -0.1
v 0.3 1.4 -0.1
v 0.3 1.5 -0.1
v -0.5 0 -0.2
v -0.5 0.1 -0.2
v -0.5 1.2 -0.2
v -0.5 1.3 -0.2
v -0.4 0 -0.2
v -0.4 0.1 -0.2
v -0.4 1.2 -0.2
v -0.4 1.3 -0.2
v -0.4 1.4 -0.2
v -0.3 0.1 -0.2
v -0.3 1.2 -0.2
v -0.3 1.3 -0.2
v -0.2 1.3 -0.2
v -0.2 1.4 -0.2
v 0.1 1.3 -0.2
v 0.1 1.4 -0.2
v 0.3 0.1 -0.2
v 0.3 0.2 -0.2
v 0.3 0.3 -0.2
v 0.3 0.4 -0.2
v 0.3 0.5 -0.2
v 0.3 1.2 -0.2
v 0.3 1.3 -0.2
v 0.4 0 -0.2
v 0.4 0.1 -0.2
v 0.4 0.2 -0.2
v 0.4 0.3 -0.2
v 0.4 0.4 -0.2
v 0.4 0.5 -0.2
v 0.4 1.2 -0.2
v 0.4 1.3 -0.2
v 0.4 1.4 -0.2
v 0.5 0 -0.2
v 0.5 0.1 -0.2
v 0.5 1.2 -0.2
v 0.5 1.3 -0.2
v -0.4 0 -0.4
v -0.4 0.1 -0.4
v -0.4 1.2 -0.4
v -0.4 1.3 -0.4
v -0.3 0 -0.4
v -0.3 0.1 -0.4
v -0.3 1.2 -0.4
v -0.3 1.3 -0.4
v -0.2 0.1 -0.4
v -0.2 1.2 -0.4
v -0.1 1.4 -0.4
v -0.1 1.5 -0.4
v 0 1.4 -0.4
v 0 1.5 -0.4
v 0.2 0.1 -0.4
v 0.2 1.2 -0.4
v 0.3 0 -0.4
v 0.3 0.1 -0.4
v 0.3 1.2 -0.4
v 0.3 1.3 -0.4
v 0.4 0 -0.4
v 0.4 0.1 -0.4
v 0.4 1.2 -0.4
v 0.4 1.3 -0.4
v -0.3 0 -0.5
v -0.3 0.1 -0.5
v -0.3 1.2 -0.5
v -0.3 1.3 -0.5
v -0.2 0 -0.5
v -0.2 0.1 -0.5
v -0.2 1.2 -0.5
v -0.2 1.3 -0.5
v -0.2 1.4 -0.5
v 0.1 1.3 -0.5
v 0.1 1.4 -0.5
v 0.2 0 -0.5
v 0.2 0.1 -0.5
v 0.2 1.2 -0.5
v 0.2 1.3 -0.5
v 0.3 0 -0.5
v 0.3 0.1 -0.5
v 0.3 1.2 -0.5
v 0.3 1.3 -0.5
v -0.2 0 -0.6
v -0.2 0.1 -0.6
v -0.2 1.2 -0.6
v -0.2 1.3 -0.6
v 0.2 0 -0.6
v 0.2 0.1 -0.6
v 0.2 1.2 -0.6
v 0.2 1.3 -0.6
v -0.2 0 0.5
v 0.2 0 0.5
v -0.2 0 0.4
v 0.2 0 0.4
v 0.3 0 0.4
v -0.4 0 0.3
v -0.3 0 0.3
v -0.2 0 0.3
v 0.2 0 0.3
v 0.3 0 0.3
v 0.4 0 0.3
v -0.5 0 0.1
v -0.4 0 0.1
v -0.3 0 0.1
v 0.3 0 0.1
v 0.4 0 0.1
v 0.5 0 0.1
v -0.5 0 -0.2
v -0.4 0 -0.2
v -0.3 0 -0.2
v 0.3 0 -0.2
v 0.4 0 -0.2
v 0.5 0 -0.2
v -0.4 0 -0.4
v -0.3 0 -0.4
v -0.2 0 -0.4
v 0.2 0 -0.4
v 0.3 0 -0.4
v 0.4 0 -0.4
v -0.3 0 -0.5
v -0.2 0 -0.5
v 0.2 0 -0.5
v 0.3 0 -0.5
v -0.2 0 -0.6
v 0.2 0 -0.6
v -0.2 1.2 0.5
v 0.2 1.2 0.5
v -0.3 1.2 0.4
v -0.2 1.2 0.4
v 0.2 1.2 0.4
v 0.3 1.2 0.4
v -0.4 1.2 0.3
v -0.3 1.2 0.3
v -0.2 1.2 0.3
v 0.2 1.2 0.3
v 0.3 1.2 0.3
v 0.4 1.2 0.3
v -0.5 1.2 0.1
v -0.4 1.2 0.1
v -0.3 1.2 0.1
v 0.3 1.2 0.1
v 0.4 1.2 0.1
v 0.5 1.2 0.1
v -0.5 1.2 -0.2
v -0.4 1.2 -0.2
v -0.3 1.2 -0.2
v 0.3 1.2 -0.2
v 0.4 1.2 -0.2
v 0.5 1.2 -0.2
v -0.4 1.2 -0.4
v -0.3 1.2 -0.4
v -0.2 1.2 -0.4
v 0.2 1.2 -0.4
v 0.3 1.2 -0.4
v 0.4 1.2 -0.4
v -0.3 1.2 -0.5
v -0.2 1.2 -0.5
v 0.2 1.2 -0.5
v 0.3 1.2 -0.5
v -0.2 1.2 -0.6
v 0.2 1.2 -0.6
v -0.2 0.1 0.5
v 0.2 0.1 0.5
v -0.2 0.1 0.4
v 0.2 0.1 0.4
v 0.3 0.1 0.4
v -0.4 0.1 0.3
v -0.3 0.1 0.3
v 0.2 0.1 0.3
v 0.3 0.1 0.3
v 0.4 0.1 0.3
v -0.5 0.1 0.1
v -0.4 0.1 0.1
v -0.3 0.1 0.1
v 0.3 0.1 0.1
v 0.4 0.1 0.1
v 0.5 0.1 0.1
v -0.5 0.1 -0.2
v -0.4 0.1 -0.2
v -0.3 0.1 -0.2
v 0.3 0.1 -0.2
v 0.4 0.1 -0.2
v 0.5 0.1 -0.2
v -0.4 0.1 -0.4
v -0.3 0.1 -0.4
v -0.2 0.1 -0.4
v 0.2 0.1 -0.4
v 0.3 0.1 -0.4
v 0.4 0.1 -0.4
v -0.3 0.1 -0.5
v -0.2 0.1 -0.5
v 0.2 0.1 -0.5
v 0.3 0.1 -0.5
v -0.2 0.1 -0.6
v 0.2 0.1 -0.6
v -0.2 1.3 0.5
v 0.2 1.3 0.5
v -0.3 1.3 0.4
v -0.2 1.3 0.4
v 0.1 1.3 0.4
v 0.2 1.3 0.4
v 0.3 1.3 0.4
v -0.4 1.3 0.3
v -0.3 1.3 0.3
v -0.2 1.3 0.3
v 0.2 1.3 0.3
v 0.3 1.3 0.3
v 0.4 1.3 0.3
v -0.5 1.3 0.1
v -0.4 1.3 0.1
v -0.3 1.3 0.1
v -0.2 1.3 0.1
v -0.1 1.3 0.1
v 0.1 1.3 0.1
v 0.3 1.3 0.1
v 0.4 1.3 0.1
v 0.5 1.3 0.1
v -0.5 1.3 -0.2
v -0.4 1.3 -0.2
v -0.3 1.3 -0.2
v -0.2 1.3 -0.2
v -0.1 1.3 -0.2
v 0.1 1.3 -0.2
v 0.3 1.3 -0.2
v 0.4 1.3 -0.2
v 0.5 1.3 -0.2
v -0.4 1.3 -0.4
v -0.3 1.3 -0.4
v -0.2 1.3 -0.4
v 0.2 1.3 -0.4
v 0.3 1.3 -0.4
v 0.4 1.3 -0.4
v -0.3 1.3 -0.5
v -0.2 1.3 -0.5
v 0.1 1.3 -0.5
v 0.2 1.3 -0.5
v 0.3 1.3 -0.5
v -0.2 1.3 -0.6
v 0.2 1.3 -0.6
v -0.2 1.4 0.4
v 0.1 1.4 0.4
v -0.1 1.4 0.3
v 0 1.4 0.3
v -0.1 1.4 0.2
v 0 1.4 0.2
v -0.4 1.4 0.1
v -0.2 1.4 0.1
v -0.1 1.4 0.1
v 0.1 1.4 0.1
v 0.4 1.4 0.1
v -0.3 1.4 0
v -0.2 1.4 0
v 0.2 1.4 0
v 0.3 1.4 0
v -0.3 1.4 -0.1
v -0.2 1.4 -0.1
v 0.2 1.4 -0.1
v 0.3 1.4 -0.1
v -0.4 1.4 -0.2
v -0.2 1.4 -0.2
v -0.1 1.4 -0.2
v 0.1 1.4 -0.2
v 0.4 1.4 -0.2
v -0.1 1.4 -0.3
v 0 1.4 -0.3
v -0.1 1.4 -0.4
v 0 1.4 -0.4
v -0.2 1.4 -0.5
v 0.1 1.4 -0.5
v -0.1 1.5 0.3
v 0 1.5 0.3
v -0.1 1.5 0.2
v 0 1.5 0.2
v -0.3 1.5 0
v -0.2 1.5 0
v 0.2 1.5 0
v 0.3 1.5 0
v -0.3 1.5 -0.1
v -0.2 1.5 -0.1
v 0.2 1.5 -0.1
v 0.3 1.5 -0.1
v -0.1 1.5 -0.3
v 0 1.5 -0.3
v -0.1 1.5 -0.4
v 0 1.5 -0.4

# faces
f 3/2/1 2/2/1 1/2/1
f 4/2/1 2/2/1 3/2/1
f 7/2/1 6/2/1 5/2/1
f 8/2/1 6/2/1 7/2/1
f 13/2/1 10/2/1 9/2/1
f 14/2/1 10/2/1 13/2/1
f 15/2/1 12/2/1 11/2/1
f 16/2/1 12/2/1 15/2/1
f 18/1/1 15/1/1 14/1/1
f 19/1/1 15/1/1 18/1/1
f 21/2/1 18/2/1 17/2/1
f 22/2/1 18/2/1 21/2/1
f 23/2/1 20/2/1 19/2/1
f 24/2/1 20/2/1 23/2/1
f 25/3/1 23/3/1 22/3/1
f 26/3/1 23/3/1 25/3/1
f 32/2/1 28/2/1 27/2/1
f 33/2/1 28/2/1 32/2/1
f 35/1/1 30/1/1 29/1/1
f 36/1/1 30/1/1 35/1/1
f 37/1/1 32/1/1 31/1/1
f 38/1/1 32/1/1 37/1/1
f 40/2/1 35/2/1 34/2/1
f 41/2/1 35/2/1 40/2/1
f 42/2/1 39/2/1 38/2/1
f 43/2/1 39/2/1 42/2/1
f 46/3/1 45/3/1 44/3/1
f 47/3/1 45/3/1 46/3/1
f 53/2/1 49/2/1 48/2/1
f 54/1/1 50/1/1 49/1/1
f 54/2/1 49/2/1 53/2/1
f 56/2/1 52/2/1 51/2/1
f 57/2/1 52/2/1 56/2/1
f 59/1/1 50/1/1 54/1/1
f 60/1/1 50/1/1 59/1/1
f 61/1/1 56/1/1 55/1/1
f 62/1/1 56/1/1 61/1/1
f 64/2/1 59/2/1 58/2/1
f 65/2/1 59/2/1 64/2/1
f 70/2/1 63/2/1 62/2/1
f 71/2/1 63/2/1 70/2/1
f 72/3/1 66/3/1 65/3/1
f 72/3/1 67/3/1 66/3/1
f 73/3/1 67/3/1 72/3/1
f 74/3/1 69/3/1 68/3/1
f 74/3/1 70/3/1 69/3/1
f 75/3/1 70/3/1 74/3/1
f 80/3/1 77/3/1 76/3/1
f 81/3/1 77/3/1 80/3/1
f 82/3/1 79/3/1 78/3/1
f 83/3/1 79/3/1 82/3/1
f 86/3/1 85/3/1 84/3/1
f 87/3/1 85/3/1 86/3/1
f 90/3/1 89/3/1 88/3/1
f 91/3/1 89/3/1 90/3/1
f 92/3/2 93/3/2 94/3/2
f 94/3/2 93/3/2 95/3/2
f 96/3/2 97/3/2 98/3/2
f 98/3/2 97/3/2 99/3/2
f 100/3/2 101/3/2 104/3/2
f 104/3/2 101/3/2 105/3/2
f 102/3/2 103/3/2 106/3/2
f 106/3/2 103/3/2 107/3/2
f 108/3/2 109/3/2 112/3/2
f 112/3/2 109/3/2 113/3/2
f 110/3/2 111/3/2 114/3/2
f 114/3/2 111/3/2 115/3/2
f 116/2/2 117/2/2 120/2/2
f 120/2/2 117/2/2 121/2/2
f 118/2/2 119/2/2 124/2/2
f 124/2/2 119/2/2 125/2/2
f 121/1/2 122/1/2 127/1/2
f 127/1/2 122/1/2 128/1/2
f 123/1/2 124/1/2 129/1/2
f 129/1/2 124/1/2 130/1/2
f 126/2/2 127/2/2 132/2/2
f 132/2/2 127/2/2 133/2/2
f 130/2/2 131/2/2 134/2/2
f 134/2/2 131/2/2 135/2/2
f 136/2/2 137/2/2 140/2/2
f 140/2/2 137/2/2 141/2/2
f 138/2/2 139/2/2 144/2/2
f 144/2/2 139/2/2 145/2/2
f 141/1/2 142/1/2 146/1/2
f 143/1/2 144/1/2 147/1/2
f 141/1/2 146/1/2 148/1/2
f 147/1/2 144/1/2 149/1/2
f 141/1/2 148/1/2 150/1/2
f 149/1/2 144/1/2 151/1/2
f 141/1/2 150/1/2 152/1/2
f 151/1/2 144/1/2 153/1/2
f 141/1/2 152/1/2 155/1/2
f 155/1/2 152/1/2 156/1/2
f 153/1/2 144/1/2 157/1/2
f 157/1/2 144/1/2 158/1/2
f 154/2/2 155/2/2 160/2/2
f 160/2/2 155/2/2 161/2/2
f 158/2/2 159/2/2 162/2/2
f 162/2/2 159/2/2 163/2/2
f 164/3/2 165/3/2 166/3/2
f 166/3/2 165/3/2 167/3/2
f 168/2/2 169/2/2 172/2/2
f 172/2/2 169/2/2 173/2/2
f 170/2/2 171/2/2 174/2/2
f 174/2/2 171/2/2 175/2/2
f 173/1/2 174/1/2 176/1/2
f 176/1/2 174/1/2 177/1/2
f 177/1/2 174/1/2 178/1/2
f 178/1/2 174/1/2 179/1/2
f 176/4/2 177/4/2 180/4/2
f 177/1/2 178/1/2 181/1/2
f 180/4/2 177/4/2 181/4/2
f 178/4/2 179/4/2 182/4/2
f 181/1/2 178/1/2 182/1/2
f 182/4/2 179/4/2 183/4/2
f 180/1/2 181/1/2 184/1/2
f 181/4/2 182/4/2 185/4/2
f 184/1/2 181/1/2 185/1/2
f 182/1/2 183/1/2 186/1/2
f 185/4/2 182/4/2 186/4/2
f 186/1/2 183/1/2 187/1/2
f 184/4/2 185/4/2 188/4/2
f 185/1/2 186/1/2 189/1/2
f 188/4/2 185/4/2 189/4/2
f 186/4/2 187/4/2 190/4/2
f 189/1/2 186/1/2 190/1/2
f 190/4/2 187/4/2 191/4/2
f 188/1/2 189/1/2 192/1/2
f 189/1/2 190/1/2 192/1/2
f 190/1/2 191/1/2 192/1/2
f 192/1/2 191/1/2 193/1/2
f 188/1/2 192/1/2 194/1/2
f 192/4/2 193/4/2 194/4/2
f 193/1/2 191/1/2 195/1/2
f 194/4/2 193/4/2 195/4/2
f 188/1/2 194/1/2 197/1/2
f 194/1/2 195/1/2 197/1/2
f 195/1/2 191/1/2 198/1/2
f 197/1/2 195/1/2 198/1/2
f 196/2/2 197/2/2 200/2/2
f 200/2/2 197/2/2 201/2/2
f 198/2/2 199/2/2 202/2/2
f 202/2/2 199/2/2 203/2/2
f 201/3/2 202/3/2 204/3/2
f 204/3/2 202/3/2 205/3/2
f 206/2/2 207/2/2 208/2/2
f 208/2/2 207/2/2 209/2/2
f 210/2/2 211/2/2 212/2/2
f 212/2/2 211/2/2 213/2/2
f 218/2/3 215/2/3 214/2/3
f 219/2/3 215/2/3 218/2/3
f 220/2/3 217/2/3 216/2/3
f 221/2/3 217/2/3 220/2/3
f 225/2/3 223/2/3 222/2/3
f 226/2/3 223/2/3 225/2/3
f 228/3/3 227/3/3 226/3/3
f 229/3/3 227/3/3 228/3/3
f 231/1/3 225/1/3 224/1/3
f 232/1/3 225/1/3 231/1/3
f 234/2/3 231/2/3 230/2/3
f 235/2/3 231/2/3 234/2/3
f 236/2/3 233/2/3 232/2/3
f 237/2/3 233/2/3 236/2/3
f 242/2/3 239/2/3 238/2/3
f 243/2/3 239/2/3 242/2/3
f 244/2/3 241/2/3 240/2/3
f 245/2/3 241/2/3 244/2/3
f 246/1/3 243/1/3 242/1/3
f 246/1/3 244/1/3 243/1/3
f 247/1/3 244/1/3 246/1/3
f 250/3/3 249/3/3 248/3/3
f 251/3/3 249/3/3 250/3/3
f 255/1/3 253/1/3 252/1/3
f 256/1/3 253/1/3 255/1/3
f 258/2/3 255/2/3 254/2/3
f 259/2/3 255/2/3 258/2/3
f 260/2/3 257/2/3 256/2/3
f 261/2/3 257/2/3 260/2/3
f 266/2/3 263/2/3 262/2/3
f 267/2/3 263/2/3 266/2/3
f 268/2/3 265/2/3 264/2/3
f 269/2/3 265/2/3 268/2/3
f 271/1/3 268/1/3 267/1/3
f 272/1/3 268/1/3 271/1/3
f 273/3/3 270/3/3 269/3/3
f 274/3/3 270/3/3 273/3/3
f 275/3/3 270/3/3 274/3/3
f 284/3/3 277/3/3 276/3/3
f 286/1/3 279/1/3 278/1/3
f 287/4/3 280/4/3 279/4/3
f 287/1/3 279/1/3 286/1/3
f 288/1/3 281/1/3 280/1/3
f 288/4/3 280/4/3 287/4/3
f 289/4/3 282/4/3 281/4/3
f 289/1/3 281/1/3 288/1/3
f 290/1/3 283/1/3 282/1/3
f 290/4/3 282/4/3 289/4/3
f 291/1/3 283/1/3 290/1/3
f 292/3/3 277/3/3 284/3/3
f 293/3/3 277/3/3 292/3/3
f 294/2/3 286/2/3 285/2/3
f 295/2/3 286/2/3 294/2/3
f 296/2/3 292/2/3 291/2/3
f 297/2/3 292/2/3 296/2/3
f 300/3/3 299/3/3 298/3/3
f 301/3/3 299/3/3 300/3/3
f 304/3/3 303/3/3 302/3/3
f 305/3/3 303/3/3 304/3/3
f 308/3/3 307/3/3 306/3/3
f 309/3/3 307/3/3 308/3/3
f 312/3/3 311/3/3 310/3/3
f 313/3/3 311/3/3 312/3/3
f 314/3/4 315/3/4 316/3/4
f 316/3/4 315/3/4 317/3/4
f 318/3/4 319/3/4 320/3/4
f 320/3/4 319/3/4 321/3/4
f 322/3/4 323/3/4 324/3/4
f 324/3/4 323/3/4 325/3/4
f 326/3/4 327/3/4 328/3/4
f 328/3/4 327/3/4 329/3/4
f 330/2/4 331/2/4 334/2/4
f 334/2/4 331/2/4 335/2/4
f 332/2/4 333/2/4 336/2/4
f 336/2/4 333/2/4 337/2/4
f 335/1/4 336/1/4 339/1/4
f 339/1/4 336/1/4 340/1/4
f 337/3/4 338/3/4 341/3/4
f 341/3/4 338/3/4 342/3/4
f 342/3/4 338/3/4 343/3/4
f 344/3/4 345/3/4 352/3/4
f 346/1/4 347/1/4 354/1/4
f 347/4/4 348/4/4 355/4/4
f 354/1/4 347/1/4 355/1/4
f 348/1/4 349/1/4 356/1/4
f 355/4/4 348/4/4 356/4/4
f 349/4/4 350/4/4 357/4/4
f 356/1/4 349/1/4 357/1/4
f 350/1/4 351/1/4 358/1/4
f 357/4/4 350/4/4 358/4/4
f 358/1/4 351/1/4 359/1/4
f 352/3/4 345/3/4 360/3/4
f 360/3/4 345/3/4 361/3/4
f 353/2/4 354/2/4 362/2/4
f 362/2/4 354/2/4 363/2/4
f 359/2/4 360/2/4 364/2/4
f 364/2/4 360/2/4 365/2/4
f 366/2/4 367/2/4 370/2/4
f 370/2/4 367/2/4 371/2/4
f 368/2/4 369/2/4 372/2/4
f 372/2/4 369/2/4 373/2/4
f 371/1/4 372/1/4 374/1/4
f 374/1/4 372/1/4 375/1/4
f 376/3/4 377/3/4 378/3/4
f 378/3/4 377/3/4 379/3/4
f 380/1/4 381/1/4 383/1/4
f 383/1/4 381/1/4 384/1/4
f 382/2/4 383/2/4 386/2/4
f 386/2/4 383/2/4 387/2/4
f 384/2/4 385/2/4 388/2/4
f 388/2/4 385/2/4 389/2/4
f 390/2/4 391/2/4 394/2/4
f 394/2/4 391/2/4 395/2/4
f 392/2/4 393/2/4 396/2/4
f 396/2/4 393/2/4 397/2/4
f 397/3/4 398/3/4 399/3/4
f 399/3/4 398/3/4 400/3/4
f 395/1/4 396/1/4 402/1/4
f 402/1/4 396/1/4 403/1/4
f 401/2/4 402/2/4 405/2/4
f 405/2/4 402/2/4 406/2/4
f 403/2/4 404/2/4 407/2/4
f 407/2/4 404/2/4 408/2/4
f 409/2/4 410/2/4 413/2/4
f 413/2/4 410/2/4 414/2/4
f 411/2/4 412/2/4 415/2/4
f 415/2/4 412/2/4 416/2/4
f 419/2/5 418/2/5 417/2/5
f 420/2/5 418/2/5 419/2/5
f 424/1/5 420/1/5 419/1/5
f 425/2/5 421/2/5 420/2/5
f 425/1/5 420/1/5 424/1/5
f 426/2/5 421/2/5 425/2/5
f 429/2/5 423/2/5 422/2/5
f 430/1/5 424/1/5 423/1/5
f 430/1/5 425/1/5 424/1/5
f 430/2/5 423/2/5 429/2/5
f 430/1/5 426/1/5 425/1/5
f 431/2/5 427/2/5 426/2/5
f 431/1/5 426/1/5 430/1/5
f 432/2/5 427/2/5 431/2/5
f 434/2/5 429/2/5 428/2/5
f 435/1/5 430/1/5 429/1/5
f 435/2/5 429/2/5 434/2/5
f 435/1/5 431/1/5 430/1/5
f 435/1/5 432/1/5 431/1/5
f 436/1/5 432/1/5 435/1/5
f 437/1/5 432/1/5 436/1/5
f 438/2/5 433/2/5 432/2/5
f 438/1/5 432/1/5 437/1/5
f 439/2/5 433/2/5 438/2/5
f 440/2/5 436/2/5 435/2/5
f 441/1/5 437/1/5 436/1/5
f 441/2/5 436/2/5 440/2/5
f 442/1/5 437/1/5 441/1/5
f 443/1/5 437/1/5 442/1/5
f 444/2/5 438/2/5 437/2/5
f 444/1/5 437/1/5 443/1/5
f 445/2/5 438/2/5 444/2/5
f 446/2/5 442/2/5 441/2/5
f 447/1/5 443/1/5 442/1/5
f 447/2/5 442/2/5 446/2/5
f 448/2/5 444/2/5 443/2/5
f 448/1/5 443/1/5 447/1/5
f 449/2/5 444/2/5 448/2/5
f 450/2/5 448/2/5 447/2/5
f 451/2/5 448/2/5 450/2/5
f 455/2/5 453/2/5 452/2/5
f 456/2/5 453/2/5 455/2/5
f 459/2/5 455/2/5 454/2/5
f 460/2/5 455/2/5 459/2/5
f 461/2/5 457/2/5 456/2/5
f 462/2/5 457/2/5 461/2/5
f 465/2/5 459/2/5 458/2/5
f 466/2/5 459/2/5 465/2/5
f 467/2/5 463/2/5 462/2/5
f 468/2/5 463/2/5 467/2/5
f 470/2/5 465/2/5 464/2/5
f 471/2/5 465/2/5 470/2/5
f 474/2/5 469/2/5 468/2/5
f 475/2/5 469/2/5 474/2/5
f 476/2/5 472/2/5 471/2/5
f 477/2/5 472/2/5 476/2/5
f 480/2/5 474/2/5 473/2/5
f 481/2/5 474/2/5 480/2/5
f 482/2/5 478/2/5 477/2/5
f 483/2/5 478/2/5 482/2/5
f 484/2/5 480/2/5 479/2/5
f 485/2/5 480/2/5 484/2/5
f 486/2/5 484/2/5 483/2/5
f 487/2/5 484/2/5 486/2/5
f 488/2/6 489/2/6 490/2/6
f 490/2/6 489/2/6 491/2/6
f 491/2/6 492/2/6 495/2/6
f 495/2/6 492/2/6 496/2/6
f 493/2/6 494/2/6 499/2/6
f 499/2/6 494/2/6 500/2/6
f 496/2/6 497/2/6 501/2/6
f 501/2/6 497/2/6 502/2/6
f 498/2/6 499/2/6 504/2/6
f 504/2/6 499/2/6 505/2/6
f 502/2/6 503/2/6 508/2/6
f 508/2/6 503/2/6 509/2/6
f 505/2/6 506/2/6 510/2/6
f 510/2/6 506/2/6 511/2/6
f 507/2/6 508/2/6 514/2/6
f 514/2/6 508/2/6 515/2/6
f 511/2/6 512/2/6 516/2/6
f 516/2/6 512/2/6 517/2/6
f 513/2/6 514/2/6 518/2/6
f 518/2/6 514/2/6 519/2/6
f 517/2/6 518/2/6 520/2/6
f 520/2/6 518/2/6 521/2/6
f 522/2/6 523/2/6 525/2/6
f 525/2/6 523/2/6 526/2/6
f 526/2/6 523/2/6 527/2/6
f 524/2/6 525/2/6 530/2/6
f 530/2/6 525/2/6 531/2/6
f 526/1/6 527/1/6 532/1/6
f 527/2/6 528/2/6 532/2/6
f 532/2/6 528/2/6 533/2/6
f 529/2/6 530/2/6 536/2/6
f 530/1/6 531/1/6 537/1/6
f 536/2/6 530/2/6 537/2/6
f 537/1/6 531/1/6 538/1/6
f 526/1/6 532/1/6 540/1/6
f 532/1/6 533/1/6 540/1/6
f 533/2/6 534/2/6 541/2/6
f 540/1/6 533/1/6 541/1/6
f 541/2/6 534/2/6 542/2/6
f 535/2/6 536/2/6 544/2/6
f 544/2/6 536/2/6 545/2/6
f 539/1/6 540/1/6 548/1/6
f 548/1/6 540/1/6 549/1/6
f 542/2/6 543/2/6 551/2/6
f 551/2/6 543/2/6 552/2/6
f 545/2/6 546/2/6 553/2/6
f 546/1/6 547/1/6 554/1/6
f 553/2/6 546/2/6 554/2/6
f 554/1/6 547/1/6 555/1/6
f 549/1/6 550/1/6 556/1/6
f 550/2/6 551/2/6 557/2/6
f 556/1/6 550/1/6 557/1/6
f 557/2/6 551/2/6 558/2/6
f 554/2/6 555/2/6 559/2/6
f 559/2/6 555/2/6 560/2/6
f 549/1/6 556/1/6 561/1/6
f 556/2/6 557/2/6 562/2/6
f 561/1/6 556/1/6 562/1/6
f 562/2/6 557/2/6 563/2/6
f 560/2/6 561/2/6 564/2/6
f 561/2/6 562/2/6 564/2/6
f 564/2/6 562/2/6 565/2/6
f 566/3/6 567/3/6 568/3/6
f 568/3/6 567/3/6 569/3/6
f 566/3/6 568/3/6 570/3/6
f 569/3/6 567/3/6 571/3/6
f 566/3/6 570/3/6 573/3/6
f 570/3/6 571/3/6 573/3/6
f 573/3/6 571/3/6 574/3/6
f 571/3/6 567/3/6 575/3/6
f 574/3/6 571/3/6 575/3/6
f 573/3/6 574/3/6 577/3/6
f 572/3/6 573/3/6 577/3/6
f 577/3/6 574/3/6 578/3/6
f 575/3/6 576/3/6 579/3/6
f 579/3/6 576/3/6 580/3/6
f 572/3/6 577/3/6 581/3/6
f 578/3/6 574/3/6 582/3/6
f 575/3/6 579/3/6 583/3/6
f 580/3/6 576/3/6 584/3/6
f 572/3/6 581/3/6 585/3/6
f 581/3/6 582/3/6 585/3/6
f 582/3/6 574/3/6 586/3/6
f 585/3/6 582/3/6 586/3/6
f 586/3/6 574/3/6 587/3/6
f 583/3/6 584/3/6 588/3/6
f 575/3/6 583/3/6 588/3/6
f 584/3/6 576/3/6 589/3/6
f 588/3/6 584/3/6 589/3/6
f 586/3/6 587/3/6 590/3/6
f 587/3/6 588/3/6 590/3/6
f 590/3/6 588/3/6 591/3/6
f 586/3/6 590/3/6 592/3/6
f 591/3/6 588/3/6 593/3/6
f 586/3/6 592/3/6 594/3/6
f 592/3/6 593/3/6 594/3/6
f 593/3/6 588/3/6 595/3/6
f 594/3/6 593/3/6 595/3/6
f 596/3/6 597/3/6 598/3/6
f 598/3/6 597/3/6 599/3/6
f 600/3/6 601/3/6 604/3/6
f 604/3/6 601/3/6 605/3/6
f 602/3/6 603/3/6 606/3/6
f 606/3/6 603/3/6 607/3/6
f 608/3/6 609/3/6 610/3/6
f 610/3/6 609/3/6 611/3/6
